<?xml version="1.0" encoding="UTF-8" standalone="no"?>
<!DOCTYPE svg PUBLIC "-//W3C//DTD SVG 1.1//EN"
 "http://www.w3.org/Graphics/SVG/1.1/DTD/svg11.dtd">
<!-- Generated by graphviz version 5.0.0 (20220707.1540)
 -->
<!-- Title: dependencies Pages: 1 -->
<svg width="272pt" height="174pt"
 viewBox="0.00 0.00 272.00 173.80" xmlns="http://www.w3.org/2000/svg" xmlns:xlink="http://www.w3.org/1999/xlink">
<g id="graph0" class="graph" transform="scale(1 1) rotate(0) translate(4 169.8)">
<title>dependencies</title>
<polygon fill="white" stroke="transparent" points="-4,4 -4,-169.8 268,-169.8 268,4 -4,4"/>
<text text-anchor="middle" x="132" y="-8.2" font-family="sans-serif" font-size="14.00">dependencies</text>
<g id="clust1" class="cluster">
<title>cluster_AppModule</title>
<polygon fill="none" stroke="black" stroke-dasharray="1,5" points="8,-32.8 8,-157.8 256,-157.8 256,-32.8 8,-32.8"/>
</g>
<g id="clust3" class="cluster">
<title>cluster_AppModule_imports</title>
<polygon fill="none" stroke="black" points="16,-40.8 16,-92.8 248,-92.8 248,-40.8 16,-40.8"/>
</g>
<!-- CourseModule -->
<g id="node1" class="node">
<title>CourseModule</title>
<polygon fill="#8dd3c7" stroke="black" points="239.71,-84.8 236.71,-88.8 215.71,-88.8 212.71,-84.8 140.29,-84.8 140.29,-48.8 239.71,-48.8 239.71,-84.8"/>
<text text-anchor="middle" x="190" y="-62.6" font-family="Times,serif" font-size="14.00">CourseModule</text>
</g>
<!-- AppModule -->
<g id="node3" class="node">
<title>AppModule</title>
<polygon fill="#8dd3c7" stroke="black" points="172.66,-149.8 169.66,-153.8 148.66,-153.8 145.66,-149.8 89.34,-149.8 89.34,-113.8 172.66,-113.8 172.66,-149.8"/>
<text text-anchor="middle" x="131" y="-127.6" font-family="Times,serif" font-size="14.00">AppModule</text>
</g>
<!-- CourseModule&#45;&gt;AppModule -->
<g id="edge1" class="edge">
<title>CourseModule&#45;&gt;AppModule</title>
<path fill="none" stroke="black" d="M156.61,-84.91C156.61,-84.91 156.61,-103.79 156.61,-103.79"/>
<polygon fill="black" stroke="black" points="153.11,-103.79 156.61,-113.79 160.11,-103.79 153.11,-103.79"/>
</g>
<!-- PrismaModule -->
<g id="node2" class="node">
<title>PrismaModule</title>
<polygon fill="#8dd3c7" stroke="black" points="122.44,-84.8 119.44,-88.8 98.44,-88.8 95.44,-84.8 23.56,-84.8 23.56,-48.8 122.44,-48.8 122.44,-84.8"/>
<text text-anchor="middle" x="73" y="-62.6" font-family="Times,serif" font-size="14.00">PrismaModule</text>
</g>
<!-- PrismaModule&#45;&gt;AppModule -->
<g id="edge2" class="edge">
<title>PrismaModule&#45;&gt;AppModule</title>
<path fill="none" stroke="black" d="M105.69,-84.91C105.69,-84.91 105.69,-103.79 105.69,-103.79"/>
<polygon fill="black" stroke="black" points="102.19,-103.79 105.69,-113.79 109.19,-103.79 102.19,-103.79"/>
</g>
</g>
</svg>
