<?xml version="1.0" encoding="UTF-8" standalone="no"?>
<!DOCTYPE svg PUBLIC "-//W3C//DTD SVG 1.1//EN"
 "http://www.w3.org/Graphics/SVG/1.1/DTD/svg11.dtd">
<!-- Generated by graphviz version 5.0.0 (20220707.1540)
 -->
<!-- Title: dependencies Pages: 1 -->
<svg width="640pt" height="250pt"
 viewBox="0.00 0.00 640.00 249.80" xmlns="http://www.w3.org/2000/svg" xmlns:xlink="http://www.w3.org/1999/xlink">
<g id="graph0" class="graph" transform="scale(1 1) rotate(0) translate(4 245.8)">
<title>dependencies</title>
<polygon fill="white" stroke="transparent" points="-4,4 -4,-245.8 636,-245.8 636,4 -4,4"/>
<text text-anchor="middle" x="316" y="-8.2" font-family="sans-serif" font-size="14.00">dependencies</text>
<g id="clust1" class="cluster">
<title>cluster_AppModule</title>
<polygon fill="none" stroke="black" stroke-dasharray="1,5" points="182,-32.8 182,-233.8 326,-233.8 326,-32.8 182,-32.8"/>
</g>
<g id="clust3" class="cluster">
<title>cluster_AppModule_imports</title>
<polygon fill="none" stroke="black" points="190,-40.8 190,-168.8 306,-168.8 306,-40.8 190,-40.8"/>
</g>
<g id="clust7" class="cluster">
<title>cluster_CourseModule</title>
<polygon fill="none" stroke="black" stroke-dasharray="1,5" points="8,-32.8 8,-100.8 174,-100.8 174,-32.8 8,-32.8"/>
</g>
<g id="clust12" class="cluster">
<title>cluster_CourseModule_providers</title>
<polygon fill="none" stroke="black" points="16,-40.8 16,-92.8 166,-92.8 166,-40.8 16,-40.8"/>
</g>
<g id="clust13" class="cluster">
<title>cluster_PrismaModule</title>
<polygon fill="none" stroke="black" stroke-dasharray="1,5" points="334,-108.8 334,-176.8 624,-176.8 624,-108.8 334,-108.8"/>
</g>
<g id="clust16" class="cluster">
<title>cluster_PrismaModule_exports</title>
<polygon fill="none" stroke="black" points="500,-116.8 500,-168.8 616,-168.8 616,-116.8 500,-116.8"/>
</g>
<g id="clust18" class="cluster">
<title>cluster_PrismaModule_providers</title>
<polygon fill="none" stroke="black" points="342,-116.8 342,-168.8 492,-168.8 492,-116.8 342,-116.8"/>
</g>
<!-- CourseModule -->
<g id="node1" class="node">
<title>CourseModule</title>
<polygon fill="#8dd3c7" stroke="black" points="297.71,-160.8 294.71,-164.8 273.71,-164.8 270.71,-160.8 198.29,-160.8 198.29,-124.8 297.71,-124.8 297.71,-160.8"/>
<text text-anchor="middle" x="248" y="-138.6" font-family="Times,serif" font-size="14.00">CourseModule</text>
</g>
<!-- AppModule -->
<g id="node3" class="node">
<title>AppModule</title>
<polygon fill="#8dd3c7" stroke="black" points="303.66,-225.8 300.66,-229.8 279.66,-229.8 276.66,-225.8 220.34,-225.8 220.34,-189.8 303.66,-189.8 303.66,-225.8"/>
<text text-anchor="middle" x="262" y="-203.6" font-family="Times,serif" font-size="14.00">AppModule</text>
</g>
<!-- CourseModule&#45;&gt;AppModule -->
<g id="edge1" class="edge">
<title>CourseModule&#45;&gt;AppModule</title>
<path fill="none" stroke="black" d="M258.89,-160.91C258.89,-160.91 258.89,-179.79 258.89,-179.79"/>
<polygon fill="black" stroke="black" points="255.39,-179.79 258.89,-189.79 262.39,-179.79 255.39,-179.79"/>
</g>
<!-- PrismaModule -->
<g id="node2" class="node">
<title>PrismaModule</title>
<polygon fill="#8dd3c7" stroke="black" points="298.44,-84.8 295.44,-88.8 274.44,-88.8 271.44,-84.8 199.56,-84.8 199.56,-48.8 298.44,-48.8 298.44,-84.8"/>
<text text-anchor="middle" x="249" y="-62.6" font-family="Times,serif" font-size="14.00">PrismaModule</text>
</g>
<!-- PrismaModule&#45;&gt;CourseModule -->
<g id="edge3" class="edge">
<title>PrismaModule&#45;&gt;CourseModule</title>
<path fill="none" stroke="black" d="M248.69,-84.81C248.69,-84.81 248.69,-114.65 248.69,-114.65"/>
<polygon fill="black" stroke="black" points="245.19,-114.65 248.69,-124.65 252.19,-114.65 245.19,-114.65"/>
</g>
<!-- PrismaModule&#45;&gt;AppModule -->
<g id="edge2" class="edge">
<title>PrismaModule&#45;&gt;AppModule</title>
<path fill="none" stroke="black" d="M298.4,-75.8C313.88,-75.8 327.01,-75.8 327.01,-75.8 327.01,-75.8 327.01,-207.8 327.01,-207.8 327.01,-207.8 313.9,-207.8 313.9,-207.8"/>
<polygon fill="black" stroke="black" points="313.9,-204.3 303.9,-207.8 313.9,-211.3 313.9,-204.3"/>
</g>
<!-- PrismaService  -->
<g id="node5" class="node">
<title>PrismaService </title>
<polygon fill="#fb8072" stroke="black" points="608.37,-160.8 507.63,-160.8 507.63,-124.8 608.37,-124.8 608.37,-160.8"/>
<text text-anchor="middle" x="558" y="-138.6" font-family="Times,serif" font-size="14.00">PrismaService </text>
</g>
<!-- PrismaModule&#45;&gt;PrismaService  -->
<g id="edge5" class="edge">
<title>PrismaModule&#45;&gt;PrismaService </title>
<path fill="none" stroke="black" stroke-dasharray="5,2" d="M298.3,-57.8C385.54,-57.8 558,-57.8 558,-57.8 558,-57.8 558,-114.77 558,-114.77"/>
<polygon fill="black" stroke="black" points="554.5,-114.77 558,-124.77 561.5,-114.77 554.5,-114.77"/>
</g>
<!-- CourseService -->
<g id="node4" class="node">
<title>CourseService</title>
<ellipse fill="#fdb462" stroke="black" cx="91" cy="-66.8" rx="67.2" ry="18"/>
<text text-anchor="middle" x="91" y="-62.6" font-family="Times,serif" font-size="14.00">CourseService</text>
</g>
<!-- CourseService&#45;&gt;CourseModule -->
<g id="edge4" class="edge">
<title>CourseService&#45;&gt;CourseModule</title>
<path fill="none" stroke="black" d="M91,-84.81C91,-107.29 91,-142.8 91,-142.8 91,-142.8 188.32,-142.8 188.32,-142.8"/>
<polygon fill="black" stroke="black" points="188.32,-146.3 198.32,-142.8 188.32,-139.3 188.32,-146.3"/>
</g>
<!-- PrismaService -->
<g id="node6" class="node">
<title>PrismaService</title>
<ellipse fill="#fdb462" stroke="black" cx="417" cy="-142.8" rx="66.64" ry="18"/>
<text text-anchor="middle" x="417" y="-138.6" font-family="Times,serif" font-size="14.00">PrismaService</text>
</g>
<!-- PrismaService&#45;&gt;PrismaModule -->
<g id="edge6" class="edge">
<title>PrismaService&#45;&gt;PrismaModule</title>
<path fill="none" stroke="black" d="M417,-124.79C417,-102.31 417,-66.8 417,-66.8 417,-66.8 308.5,-66.8 308.5,-66.8"/>
<polygon fill="black" stroke="black" points="308.5,-63.3 298.5,-66.8 308.5,-70.3 308.5,-63.3"/>
</g>
</g>
</svg>
