<?xml version="1.0" encoding="UTF-8" standalone="no"?>
<!DOCTYPE svg PUBLIC "-//W3C//DTD SVG 1.1//EN"
 "http://www.w3.org/Graphics/SVG/1.1/DTD/svg11.dtd">
<!-- Generated by graphviz version 5.0.0 (20220707.1540)
 -->
<!-- Title: dependencies Pages: 1 -->
<svg width="312pt" height="174pt"
 viewBox="0.00 0.00 312.00 173.80" xmlns="http://www.w3.org/2000/svg" xmlns:xlink="http://www.w3.org/1999/xlink">
<g id="graph0" class="graph" transform="scale(1 1) rotate(0) translate(4 169.8)">
<title>dependencies</title>
<polygon fill="white" stroke="transparent" points="-4,4 -4,-169.8 308,-169.8 308,4 -4,4"/>
<text text-anchor="middle" x="152" y="-8.2" font-family="sans-serif" font-size="14.00">dependencies</text>
<g id="clust1" class="cluster">
<title>cluster_CourseModule</title>
<polygon fill="none" stroke="black" stroke-dasharray="1,5" points="8,-32.8 8,-157.8 296,-157.8 296,-32.8 8,-32.8"/>
</g>
<g id="clust6" class="cluster">
<title>cluster_CourseModule_providers</title>
<polygon fill="none" stroke="black" points="138,-40.8 138,-92.8 288,-92.8 288,-40.8 138,-40.8"/>
</g>
<g id="clust3" class="cluster">
<title>cluster_CourseModule_imports</title>
<polygon fill="none" stroke="black" points="16,-40.8 16,-92.8 130,-92.8 130,-40.8 16,-40.8"/>
</g>
<!-- PrismaModule -->
<g id="node1" class="node">
<title>PrismaModule</title>
<polygon fill="#8dd3c7" stroke="black" points="122.44,-84.8 119.44,-88.8 98.44,-88.8 95.44,-84.8 23.56,-84.8 23.56,-48.8 122.44,-48.8 122.44,-84.8"/>
<text text-anchor="middle" x="73" y="-62.6" font-family="Times,serif" font-size="14.00">PrismaModule</text>
</g>
<!-- CourseModule -->
<g id="node2" class="node">
<title>CourseModule</title>
<polygon fill="#8dd3c7" stroke="black" points="192.71,-149.8 189.71,-153.8 168.71,-153.8 165.71,-149.8 93.29,-149.8 93.29,-113.8 192.71,-113.8 192.71,-149.8"/>
<text text-anchor="middle" x="143" y="-127.6" font-family="Times,serif" font-size="14.00">CourseModule</text>
</g>
<!-- PrismaModule&#45;&gt;CourseModule -->
<g id="edge1" class="edge">
<title>PrismaModule&#45;&gt;CourseModule</title>
<path fill="none" stroke="black" d="M107.81,-84.91C107.81,-84.91 107.81,-103.79 107.81,-103.79"/>
<polygon fill="black" stroke="black" points="104.31,-103.79 107.81,-113.79 111.31,-103.79 104.31,-103.79"/>
</g>
<!-- CourseService -->
<g id="node3" class="node">
<title>CourseService</title>
<ellipse fill="#fdb462" stroke="black" cx="213" cy="-66.8" rx="67.2" ry="18"/>
<text text-anchor="middle" x="213" y="-62.6" font-family="Times,serif" font-size="14.00">CourseService</text>
</g>
<!-- CourseService&#45;&gt;CourseModule -->
<g id="edge2" class="edge">
<title>CourseService&#45;&gt;CourseModule</title>
<path fill="none" stroke="black" d="M169.13,-80.58C169.13,-80.58 169.13,-103.35 169.13,-103.35"/>
<polygon fill="black" stroke="black" points="165.63,-103.35 169.13,-113.35 172.63,-103.35 165.63,-103.35"/>
</g>
</g>
</svg>
